<svg width="213" height="43" viewBox="0 0 213 43" fill="none" xmlns="http://www.w3.org/2000/svg">
<path d="M74.6782 31.175H88.1762V35H68.5412V32.433L81.8522 13.665H68.7452V9.84H87.9892V12.407L74.6782 31.175ZM98.2582 16.164C100.264 16.164 101.885 16.4077 103.12 16.895C104.356 17.371 105.274 18.1643 105.874 19.275C106.486 20.3743 106.792 21.876 106.792 23.78V35H102.95L102.644 33.096H102.406C101.783 33.8213 100.995 34.3767 100.043 34.762C99.1026 35.136 98.0712 35.323 96.9492 35.323C95.6346 35.323 94.5069 35.1077 93.5662 34.677C92.6256 34.235 91.9116 33.6173 91.4242 32.824C90.9369 32.0307 90.6932 31.107 90.6932 30.053C90.6932 28.3417 91.3166 27.0213 92.5632 26.092C93.8099 25.1513 95.7706 24.579 98.4452 24.375L102.27 24.018V23.457C102.27 22.4823 102.106 21.723 101.777 21.179C101.46 20.6237 100.956 20.2327 100.264 20.006C99.5842 19.768 98.6662 19.649 97.5102 19.649C96.6942 19.649 95.8102 19.717 94.8582 19.853C93.9062 19.989 93.0052 20.193 92.1552 20.465V17.014C93.0506 16.742 94.0422 16.5323 95.1302 16.385C96.2296 16.2377 97.2722 16.164 98.2582 16.164ZM98.3432 32.144C99.0572 32.144 99.7542 32.0137 100.434 31.753C101.126 31.4923 101.738 31.0957 102.27 30.563V26.67L98.8532 26.976C97.5952 27.1007 96.6886 27.384 96.1332 27.826C95.5779 28.2567 95.3002 28.8687 95.3002 29.662C95.3002 30.4553 95.5552 31.0673 96.0652 31.498C96.5752 31.9287 97.3346 32.144 98.3432 32.144ZM111.419 35V16.453H116.043V35H111.419ZM113.731 13.291C112.756 13.291 112.025 13.0813 111.538 12.662C111.062 12.2427 110.824 11.642 110.824 10.86C110.824 10.078 111.062 9.47733 111.538 9.058C112.025 8.63867 112.756 8.429 113.731 8.429C114.706 8.429 115.431 8.63867 115.907 9.058C116.394 9.47733 116.638 10.078 116.638 10.86C116.638 11.642 116.394 12.2427 115.907 12.662C115.431 13.0813 114.706 13.291 113.731 13.291ZM130.352 31.566C130.964 31.566 131.7 31.4753 132.562 31.294V34.949C131.428 35.2097 130.284 35.34 129.128 35.34C124.492 35.34 122.175 33.079 122.175 28.557V20.125H118.809V16.453H122.175L122.991 9.84H126.799V16.453H132.392V20.125H126.799V27.758C126.799 29.1407 127.082 30.121 127.649 30.699C128.215 31.277 129.116 31.566 130.352 31.566ZM151.306 27.078H138.947C139.004 28.2567 139.247 29.1973 139.678 29.9C140.12 30.5913 140.794 31.0957 141.701 31.413C142.608 31.7303 143.809 31.889 145.305 31.889C146.79 31.889 148.439 31.6737 150.252 31.243V34.66C148.371 35.1133 146.501 35.34 144.642 35.34C141.14 35.34 138.545 34.5693 136.856 33.028C135.179 31.4867 134.34 29.0613 134.34 25.752C134.34 23.7007 134.68 21.961 135.36 20.533C136.051 19.0937 137.049 18.0057 138.352 17.269C139.655 16.5323 141.231 16.164 143.078 16.164C145.753 16.164 147.793 16.997 149.198 18.663C150.603 20.3177 151.306 22.726 151.306 25.888V27.078ZM143.01 19.122C141.695 19.122 140.698 19.5413 140.018 20.38C139.338 21.2073 138.975 22.539 138.93 24.375H146.988C146.943 22.539 146.591 21.2073 145.934 20.38C145.277 19.5413 144.302 19.122 143.01 19.122ZM163.788 35.34C160.604 35.34 158.173 34.541 156.495 32.943C154.829 31.345 153.996 28.9537 153.996 25.769C153.996 22.573 154.875 20.176 156.631 18.578C158.399 16.9687 160.972 16.164 164.349 16.164C165.97 16.164 167.443 16.334 168.769 16.674V20.312C167.387 20.0173 166.083 19.87 164.859 19.87C162.751 19.87 161.204 20.3347 160.218 21.264C159.232 22.1933 158.739 23.678 158.739 25.718C158.739 27.7807 159.204 29.2823 160.133 30.223C161.063 31.1637 162.468 31.634 164.349 31.634C165.018 31.634 165.698 31.5773 166.389 31.464C167.081 31.3507 167.874 31.1693 168.769 30.92V34.575C167.273 35.085 165.613 35.34 163.788 35.34ZM172.347 7.528H176.971V18.357H177.192C177.94 17.643 178.795 17.099 179.759 16.725C180.733 16.351 181.782 16.164 182.904 16.164C184.898 16.164 186.479 16.7647 187.647 17.966C188.825 19.156 189.415 21.0147 189.415 23.542V35H184.791V23.797C184.791 22.471 184.502 21.5303 183.924 20.975C183.346 20.4083 182.507 20.125 181.408 20.125C180.58 20.125 179.77 20.2893 178.977 20.618C178.183 20.9467 177.515 21.4227 176.971 22.046V35H172.347V7.528ZM207.525 16.453H212.081L201.83 42.48H197.274L200.249 35H199.059L191.766 16.453H196.645L202.017 31.09L207.525 16.453Z" fill="white"/>
<mask id="mask0_30_297" style="mask-type:alpha" maskUnits="userSpaceOnUse" x="0" y="4" width="59" height="36">
<path fill-rule="evenodd" clip-rule="evenodd" d="M29.3684 35.9563C33.4156 32.6557 36 27.6296 36 22C36 16.3704 33.4156 11.3443 29.3684 8.04367C32.4679 5.51585 36.4254 4 40.7368 4C50.678 4 58.7368 12.0589 58.7368 22C58.7368 31.9411 50.678 40 40.7368 40C36.4254 40 32.4679 38.4842 29.3684 35.9563ZM29.3684 35.9563C26.2689 38.4842 22.3115 40 18 40C8.05888 40 0 31.9411 0 22C0 12.0589 8.05888 4 18 4C22.3115 4 26.2689 5.51585 29.3684 8.04367C25.3213 11.3443 22.7368 16.3704 22.7368 22C22.7368 27.6296 25.3213 32.6557 29.3684 35.9563Z" fill="#CDEA55"/>
</mask>
<g mask="url(#mask0_30_297)">
<circle cx="18" cy="22" r="18" fill="url(#paint0_linear_30_297)"/>
<circle cx="40.7373" cy="22" r="18" fill="url(#paint1_linear_30_297)"/>
</g>
<defs>
<linearGradient id="paint0_linear_30_297" x1="-4.77827e-07" y1="5.36211" x2="47.6439" y2="23.0139" gradientUnits="userSpaceOnUse">
<stop stop-color="#DFF14B"/>
<stop offset="1" stop-color="#03C0EA"/>
</linearGradient>
<linearGradient id="paint1_linear_30_297" x1="22.7373" y1="5.36211" x2="70.3812" y2="23.0139" gradientUnits="userSpaceOnUse">
<stop stop-color="#DFF14B"/>
<stop offset="1" stop-color="#03C0EA"/>
</linearGradient>
</defs>
</svg>
