<svg width="23" height="23" viewBox="0 0 23 23" fill="none" xmlns="http://www.w3.org/2000/svg">
<path d="M9.58271 21.0828C9.58271 22.1405 8.72478 22.9996 7.66632 22.9996C6.60862 22.9996 5.74951 22.1405 5.74951 21.0828C5.74951 20.0233 6.60862 19.166 7.66632 19.166C8.72478 19.166 9.58271 20.0233 9.58271 21.0828Z" fill="white"/>
<path d="M18.2077 21.0828C18.2077 22.1405 17.3498 22.9996 16.2913 22.9996C15.2326 22.9996 14.3745 22.1405 14.3745 21.0828C14.3745 20.0233 15.2326 19.166 16.2913 19.166C17.3498 19.166 18.2077 20.0233 18.2077 21.0828Z" fill="white"/>
<path d="M22.9998 3.8332H4.43864L4.13281 1.89232C3.96817 0.851514 2.97126 0 1.9168 0H0V1.91639H2.19558L4.61853 17.2612C4.70076 17.7816 5.19949 18.2081 5.72654 18.2081H21.0831V16.2913H6.40627L6.10325 14.3749H21.0835L22.9998 3.8332ZM19.4841 12.4582H5.80016L4.74067 5.75021H20.7031L19.4841 12.4582Z" fill="white"/>
</svg>
