<svg width="37" height="44" viewBox="0 0 37 44" fill="none" xmlns="http://www.w3.org/2000/svg">
<mask id="path-1-inside-1_605_4932" fill="white">
<path d="M0.125 21.4939C0.125 17.9298 0.125 16.1478 0.845461 14.5813C1.56592 13.0149 2.91896 11.8551 5.62504 9.53564L8.25004 7.28564C13.1412 3.09318 15.5868 0.996948 18.5 0.996948C21.4132 0.996948 23.8588 3.09318 28.75 7.28564L31.375 9.53564C34.081 11.8551 35.4341 13.0149 36.1545 14.5813C36.875 16.1478 36.875 17.9298 36.875 21.4939V32.625C36.875 37.5747 36.875 40.0496 35.3373 41.5873C33.7996 43.125 31.3247 43.125 26.375 43.125H10.625C5.67525 43.125 3.20038 43.125 1.66269 41.5873C0.125 40.0496 0.125 37.5747 0.125 32.625V21.4939Z"/>
</mask>
<path d="M23.1625 43.125C23.1625 44.1743 24.0132 45.025 25.0625 45.025C26.1118 45.025 26.9625 44.1743 26.9625 43.125H23.1625ZM10.0375 43.125C10.0375 44.1743 10.8882 45.025 11.9375 45.025C12.9868 45.025 13.8375 44.1743 13.8375 43.125H10.0375ZM12.9375 29.275H24.0625V25.475H12.9375V29.275ZM23.1625 28.375V43.125H26.9625V28.375H23.1625ZM10.0375 28.375V43.125H13.8375V28.375H10.0375ZM24.0625 29.275C23.5654 29.275 23.1625 28.872 23.1625 28.375H26.9625C26.9625 26.7733 25.6641 25.475 24.0625 25.475V29.275ZM12.9375 25.475C11.3359 25.475 10.0375 26.7733 10.0375 28.375H13.8375C13.8375 28.872 13.4346 29.275 12.9375 29.275V25.475ZM8.25004 7.28564L10.723 10.1708L10.723 10.1708L8.25004 7.28564ZM28.75 7.28564L26.277 10.1708L26.277 10.1708L28.75 7.28564ZM31.375 9.53564L33.848 6.65047L33.848 6.65047L31.375 9.53564ZM5.62504 9.53564L3.15203 6.65047L3.15203 6.65047L5.62504 9.53564ZM33.075 21.4939V32.625H40.675V21.4939H33.075ZM26.375 39.325H10.625V46.925H26.375V39.325ZM3.925 32.625V21.4939H-3.675V32.625H3.925ZM8.09804 12.4208L10.723 10.1708L5.77703 4.40047L3.15203 6.65047L8.09804 12.4208ZM26.277 10.1708L28.902 12.4208L33.848 6.65047L31.223 4.40047L26.277 10.1708ZM10.723 10.1708C13.2433 8.01062 14.8692 6.62616 16.211 5.73997C17.4639 4.9125 18.0705 4.79695 18.5 4.79695L18.5 -2.80305C16.0164 -2.80305 13.9436 -1.87049 12.0226 -0.601721C10.1905 0.608313 8.148 2.36821 5.77703 4.40047L10.723 10.1708ZM31.223 4.40047C28.852 2.36821 26.8095 0.608312 24.9774 -0.601722C23.0564 -1.87049 20.9836 -2.80305 18.5 -2.80305L18.5 4.79695C18.9295 4.79695 19.5361 4.9125 20.789 5.73997C22.1308 6.62616 23.7567 8.01061 26.277 10.1708L31.223 4.40047ZM10.625 39.325C8.0427 39.325 6.48825 39.3169 5.37066 39.1666C4.85647 39.0975 4.5902 39.015 4.4615 38.962C4.36313 38.9216 4.35179 38.9024 4.3497 38.9003L-1.02432 44.2743C0.568251 45.8668 2.50696 46.45 4.35798 46.6989C6.09969 46.933 8.25755 46.925 10.625 46.925V39.325ZM-3.675 32.625C-3.675 34.9924 -3.68307 37.1503 -3.4489 38.892C-3.20004 40.743 -2.61688 42.6817 -1.02432 44.2743L4.3497 38.9003C4.3476 38.8982 4.32839 38.8868 4.28792 38.7885C4.23497 38.6598 4.15246 38.3935 4.08333 37.8793C3.93307 36.7617 3.925 35.2073 3.925 32.625H-3.675ZM33.075 32.625C33.075 35.2073 33.0669 36.7617 32.9167 37.8793C32.8475 38.3935 32.765 38.6598 32.7121 38.7885C32.6716 38.8868 32.6524 38.8982 32.6503 38.9003L38.0243 44.2743C39.6169 42.6817 40.2 40.743 40.4489 38.892C40.6831 37.1503 40.675 34.9924 40.675 32.625H33.075ZM26.375 46.925C28.7425 46.925 30.9003 46.933 32.642 46.6989C34.493 46.45 36.4318 45.8668 38.0243 44.2743L32.6503 38.9003C32.6482 38.9024 32.6369 38.9216 32.5385 38.962C32.4098 39.015 32.1435 39.0975 31.6293 39.1666C30.5118 39.3169 28.9573 39.325 26.375 39.325V46.925ZM40.675 21.4939C40.675 18.2776 40.7563 15.4925 39.6069 12.9935L32.7022 16.1692C32.9937 16.803 33.075 17.5821 33.075 21.4939H40.675ZM28.902 12.4208C31.8721 14.9666 32.4107 15.5353 32.7022 16.1692L39.6069 12.9935C38.4575 10.4945 36.29 8.74365 33.848 6.65047L28.902 12.4208ZM3.925 21.4939C3.925 17.5821 4.00627 16.803 4.29781 16.1692L-2.60689 12.9935C-3.75627 15.4925 -3.675 18.2776 -3.675 21.4939H3.925ZM3.15203 6.65047C0.709992 8.74364 -1.4575 10.4945 -2.60689 12.9935L4.29781 16.1692C4.58935 15.5353 5.12793 14.9666 8.09804 12.4208L3.15203 6.65047Z" fill="white" mask="url(#path-1-inside-1_605_4932)"/>
</svg>
