<svg width="47" height="47" viewBox="0 0 47 47" fill="none" xmlns="http://www.w3.org/2000/svg">
<path d="M2.5 4.5C2.5 3.55719 2.5 3.08579 2.79289 2.79289C3.08579 2.5 3.55719 2.5 4.5 2.5H16.25C17.1928 2.5 17.6642 2.5 17.9571 2.79289C18.25 3.08579 18.25 3.55719 18.25 4.5V18.875C18.25 19.8178 18.25 20.2892 17.9571 20.5821C17.6642 20.875 17.1928 20.875 16.25 20.875H4.5C3.55719 20.875 3.08579 20.875 2.79289 20.5821C2.5 20.2892 2.5 19.8178 2.5 18.875V4.5Z" stroke="white" stroke-width="3.8" stroke-linejoin="round"/>
<path d="M2.5 33.375C2.5 32.4322 2.5 31.9608 2.79289 31.6679C3.08579 31.375 3.55719 31.375 4.5 31.375H16.25C17.1928 31.375 17.6642 31.375 17.9571 31.6679C18.25 31.9608 18.25 32.4322 18.25 33.375V42.5C18.25 43.4428 18.25 43.9142 17.9571 44.2071C17.6642 44.5 17.1928 44.5 16.25 44.5H4.5C3.55719 44.5 3.08579 44.5 2.79289 44.2071C2.5 43.9142 2.5 43.4428 2.5 42.5V33.375Z" stroke="white" stroke-width="3.8" stroke-linejoin="round"/>
<path d="M28.75 4.5C28.75 3.55719 28.75 3.08579 29.0429 2.79289C29.3358 2.5 29.8072 2.5 30.75 2.5H42.5C43.4428 2.5 43.9142 2.5 44.2071 2.79289C44.5 3.08579 44.5 3.55719 44.5 4.5V13.625C44.5 14.5678 44.5 15.0392 44.2071 15.3321C43.9142 15.625 43.4428 15.625 42.5 15.625H30.75C29.8072 15.625 29.3358 15.625 29.0429 15.3321C28.75 15.0392 28.75 14.5678 28.75 13.625V4.5Z" stroke="white" stroke-width="3.8" stroke-linejoin="round"/>
<path d="M28.75 28.125C28.75 27.1822 28.75 26.7108 29.0429 26.4179C29.3358 26.125 29.8072 26.125 30.75 26.125H42.5C43.4428 26.125 43.9142 26.125 44.2071 26.4179C44.5 26.7108 44.5 27.1822 44.5 28.125V42.5C44.5 43.4428 44.5 43.9142 44.2071 44.2071C43.9142 44.5 43.4428 44.5 42.5 44.5H30.75C29.8072 44.5 29.3358 44.5 29.0429 44.2071C28.75 43.9142 28.75 43.4428 28.75 42.5V28.125Z" stroke="white" stroke-width="3.8" stroke-linejoin="round"/>
</svg>
