<svg width="41" height="53" viewBox="0 0 41 53" fill="none" xmlns="http://www.w3.org/2000/svg">
<path d="M27.2877 4.41269L28.6312 3.06919L28.6312 3.06919L27.2877 4.41269ZM37.3373 14.4623L35.9938 15.8058L35.9938 15.8058L37.3373 14.4623ZM38.6752 16.0828L40.4306 15.3557L40.4306 15.3557L38.6752 16.0828ZM37.3373 48.5873L35.9938 47.2438L35.9938 47.2438L37.3373 48.5873ZM12.625 27.225C11.5757 27.225 10.725 28.0757 10.725 29.125C10.725 30.1743 11.5757 31.025 12.625 31.025V27.225ZM28.375 31.025C29.4243 31.025 30.275 30.1743 30.275 29.125C30.275 28.0757 29.4243 27.225 28.375 27.225V31.025ZM12.625 37.725C11.5757 37.725 10.725 38.5757 10.725 39.625C10.725 40.6743 11.5757 41.525 12.625 41.525V37.725ZM23.125 41.525C24.1743 41.525 25.025 40.6743 25.025 39.625C25.025 38.5757 24.1743 37.725 23.125 37.725V41.525ZM23.8938 17.8562L22.5503 19.1997L22.5503 19.1997L23.8938 17.8562ZM12.625 4.775H23.5754V0.975H12.625V4.775ZM28.375 48.225H12.625V52.025H28.375V48.225ZM4.025 39.625V13.375H0.225V39.625H4.025ZM36.975 18.1746V39.625H40.775V18.1746H36.975ZM25.9442 5.75619L35.9938 15.8058L38.6808 13.1188L28.6312 3.06919L25.9442 5.75619ZM40.775 18.1746C40.775 17.2567 40.8086 16.2684 40.4306 15.3557L36.9198 16.8099C36.9205 16.8115 36.9246 16.8208 36.9306 16.8497C36.9375 16.8829 36.9473 16.9437 36.9555 17.0513C36.9737 17.2914 36.975 17.6103 36.975 18.1746H40.775ZM35.9938 15.8058C36.3928 16.2048 36.6175 16.4313 36.7743 16.6139C36.8447 16.6958 36.8807 16.7457 36.8993 16.7741C36.9155 16.7988 36.9191 16.8082 36.9198 16.8099L40.4306 15.3557C40.0525 14.4429 39.3299 13.7679 38.6808 13.1188L35.9938 15.8058ZM12.625 48.225C10.0964 48.225 8.39111 48.221 7.11749 48.0497C5.89853 47.8858 5.36318 47.6008 5.00619 47.2438L2.31919 49.9308C3.49989 51.1115 4.97082 51.5953 6.61115 51.8158C8.19683 52.029 10.2038 52.025 12.625 52.025V48.225ZM0.225 39.625C0.225 42.0462 0.220965 44.0532 0.434154 45.6388C0.654691 47.2792 1.13848 48.7501 2.31919 49.9308L5.00619 47.2438C4.64921 46.8868 4.36415 46.3515 4.20027 45.1325C4.02904 43.8589 4.025 42.1536 4.025 39.625H0.225ZM28.375 52.025C30.7962 52.025 32.8032 52.029 34.3888 51.8158C36.0292 51.5953 37.5001 51.1115 38.6808 49.9308L35.9938 47.2438C35.6368 47.6008 35.1015 47.8858 33.8825 48.0497C32.6089 48.221 30.9036 48.225 28.375 48.225V52.025ZM36.975 39.625C36.975 42.1536 36.971 43.8589 36.7997 45.1325C36.6358 46.3515 36.3508 46.8868 35.9938 47.2438L38.6808 49.9308C39.8615 48.7501 40.3453 47.2792 40.5658 45.6388C40.779 44.0532 40.775 42.0462 40.775 39.625H36.975ZM23.5754 4.775C24.1397 4.775 24.4586 4.77626 24.6987 4.79451C24.8063 4.80269 24.8671 4.81246 24.9003 4.81937C24.9292 4.8254 24.9385 4.82951 24.9401 4.83019L26.3943 1.31945C25.4816 0.941369 24.4933 0.975 23.5754 0.975V4.775ZM28.6312 3.06919C27.9821 2.4201 27.3071 1.69752 26.3943 1.31945L24.9401 4.83019C24.9418 4.83086 24.9512 4.83452 24.9759 4.85071C25.0043 4.86929 25.0542 4.90535 25.1361 4.97565C25.3188 5.13253 25.5452 5.35716 25.9442 5.75619L28.6312 3.06919ZM12.625 0.975C10.2038 0.975 8.19683 0.970965 6.61115 1.18415C4.97082 1.40469 3.49989 1.88848 2.31919 3.06919L5.00619 5.75619C5.36318 5.39921 5.89853 5.11415 7.11749 4.95027C8.39111 4.77904 10.0964 4.775 12.625 4.775V0.975ZM4.025 13.375C4.025 10.8464 4.02904 9.14111 4.20027 7.86749C4.36415 6.64853 4.64921 6.11318 5.00619 5.75619L2.31919 3.06919C1.13848 4.24989 0.654691 5.72082 0.434154 7.36115C0.220965 8.94683 0.225 10.9538 0.225 13.375H4.025ZM12.625 31.025H28.375V27.225H12.625V31.025ZM12.625 41.525H23.125V37.725H12.625V41.525ZM21.225 2.875V13.375H25.025V2.875H21.225ZM28.375 20.525H38.875V16.725H28.375V20.525ZM21.225 13.375C21.225 14.5587 21.221 15.6377 21.338 16.5085C21.4625 17.434 21.7541 18.4034 22.5503 19.1997L25.2373 16.5127C25.2363 16.5116 25.2267 16.5059 25.2065 16.4568C25.18 16.3924 25.1387 16.2593 25.1042 16.0022C25.029 15.4434 25.025 14.6661 25.025 13.375H21.225ZM28.375 16.725C27.0839 16.725 26.3066 16.721 25.7478 16.6458C25.4907 16.6113 25.3576 16.57 25.2932 16.5435C25.2441 16.5233 25.2384 16.5137 25.2373 16.5127L22.5503 19.1997C23.3466 19.9959 24.316 20.2875 25.2415 20.412C26.1123 20.529 27.1913 20.525 28.375 20.525V16.725Z" fill="white"/>
</svg>
